<svg width="25" height="25" viewBox="0 0 25 25" fill="none" xmlns="http://www.w3.org/2000/svg">
<path d="M12.5 2.46667C8.63 2.46667 5.5 5.59667 5.5 9.46667C5.5 14.7167 12.5 22.4667 12.5 22.4667C12.5 22.4667 19.5 14.7167 19.5 9.46667C19.5 5.59667 16.37 2.46667 12.5 2.46667ZM12.5 11.9667C11.837 11.9667 11.2011 11.7033 10.7322 11.2344C10.2634 10.7656 10 10.1297 10 9.46667C10 8.80363 10.2634 8.16775 10.7322 7.69891C11.2011 7.23007 11.837 6.96667 12.5 6.96667C13.163 6.96667 13.7989 7.23007 14.2678 7.69891C14.7366 8.16775 15 8.80363 15 9.46667C15 10.1297 14.7366 10.7656 14.2678 11.2344C13.7989 11.7033 13.163 11.9667 12.5 11.9667Z" fill="#064EA4"/>
</svg>
