<svg width="244" height="44" viewBox="0 0 244 44" fill="none" xmlns="http://www.w3.org/2000/svg">
<path d="M3.52 25.26C3.52 25.74 3.60667 26.1467 3.78 26.48C3.95333 26.8133 4.18 27.0867 4.46 27.3C4.75333 27.5 5.09333 27.6533 5.48 27.76C5.86667 27.8533 6.26667 27.9 6.68 27.9C6.96 27.9 7.26 27.88 7.58 27.84C7.9 27.7867 8.2 27.6933 8.48 27.56C8.76 27.4267 8.99333 27.2467 9.18 27.02C9.36667 26.78 9.46 26.48 9.46 26.12C9.46 25.7333 9.33333 25.42 9.08 25.18C8.84 24.94 8.52 24.74 8.12 24.58C7.72 24.42 7.26667 24.28 6.76 24.16C6.25333 24.04 5.74 23.9067 5.22 23.76C4.68667 23.6267 4.16667 23.4667 3.66 23.28C3.15333 23.08 2.7 22.8267 2.3 22.52C1.9 22.2133 1.57333 21.8333 1.32 21.38C1.08 20.9133 0.96 20.3533 0.96 19.7C0.96 18.9667 1.11333 18.3333 1.42 17.8C1.74 17.2533 2.15333 16.8 2.66 16.44C3.16667 16.08 3.74 15.8133 4.38 15.64C5.02 15.4667 5.66 15.38 6.3 15.38C7.04667 15.38 7.76 15.4667 8.44 15.64C9.13333 15.8 9.74667 16.0667 10.28 16.44C10.8133 16.8133 11.2333 17.2933 11.54 17.88C11.86 18.4533 12.02 19.1533 12.02 19.98H8.98C8.95333 19.5533 8.86 19.2 8.7 18.92C8.55333 18.64 8.35333 18.42 8.1 18.26C7.84667 18.1 7.55333 17.9867 7.22 17.92C6.9 17.8533 6.54667 17.82 6.16 17.82C5.90667 17.82 5.65333 17.8467 5.4 17.9C5.14667 17.9533 4.91333 18.0467 4.7 18.18C4.5 18.3133 4.33333 18.48 4.2 18.68C4.06667 18.88 4 19.1333 4 19.44C4 19.72 4.05333 19.9467 4.16 20.12C4.26667 20.2933 4.47333 20.4533 4.78 20.6C5.1 20.7467 5.53333 20.8933 6.08 21.04C6.64 21.1867 7.36667 21.3733 8.26 21.6C8.52667 21.6533 8.89333 21.7533 9.36 21.9C9.84 22.0333 10.3133 22.2533 10.78 22.56C11.2467 22.8667 11.6467 23.28 11.98 23.8C12.3267 24.3067 12.5 24.96 12.5 25.76C12.5 26.4133 12.3733 27.02 12.12 27.58C11.8667 28.14 11.4867 28.6267 10.98 29.04C10.4867 29.44 9.86667 29.7533 9.12 29.98C8.38667 30.2067 7.53333 30.32 6.56 30.32C5.77333 30.32 5.00667 30.22 4.26 30.02C3.52667 29.8333 2.87333 29.5333 2.3 29.12C1.74 28.7067 1.29333 28.18 0.96 27.54C0.626667 26.9 0.466667 26.14 0.48 25.26H3.52ZM16.5883 24.84C16.5883 25.2533 16.6283 25.66 16.7083 26.06C16.7883 26.4467 16.9216 26.8 17.1083 27.12C17.3083 27.4267 17.5683 27.6733 17.8883 27.86C18.2083 28.0467 18.6083 28.14 19.0883 28.14C19.5683 28.14 19.9683 28.0467 20.2883 27.86C20.6216 27.6733 20.8816 27.4267 21.0683 27.12C21.2683 26.8 21.4083 26.4467 21.4883 26.06C21.5683 25.66 21.6083 25.2533 21.6083 24.84C21.6083 24.4267 21.5683 24.02 21.4883 23.62C21.4083 23.22 21.2683 22.8667 21.0683 22.56C20.8816 22.2533 20.6216 22.0067 20.2883 21.82C19.9683 21.62 19.5683 21.52 19.0883 21.52C18.6083 21.52 18.2083 21.62 17.8883 21.82C17.5683 22.0067 17.3083 22.2533 17.1083 22.56C16.9216 22.8667 16.7883 23.22 16.7083 23.62C16.6283 24.02 16.5883 24.4267 16.5883 24.84ZM13.7483 24.84C13.7483 24.0133 13.8749 23.2667 14.1283 22.6C14.3816 21.92 14.7416 21.3467 15.2083 20.88C15.6749 20.4 16.2349 20.0333 16.8883 19.78C17.5416 19.5133 18.2749 19.38 19.0883 19.38C19.9016 19.38 20.6349 19.5133 21.2883 19.78C21.9549 20.0333 22.5216 20.4 22.9883 20.88C23.4549 21.3467 23.8149 21.92 24.0683 22.6C24.3216 23.2667 24.4483 24.0133 24.4483 24.84C24.4483 25.6667 24.3216 26.4133 24.0683 27.08C23.8149 27.7467 23.4549 28.32 22.9883 28.8C22.5216 29.2667 21.9549 29.6267 21.2883 29.88C20.6349 30.1333 19.9016 30.26 19.0883 30.26C18.2749 30.26 17.5416 30.1333 16.8883 29.88C16.2349 29.6267 15.6749 29.2667 15.2083 28.8C14.7416 28.32 14.3816 27.7467 14.1283 27.08C13.8749 26.4133 13.7483 25.6667 13.7483 24.84ZM26.9148 21.56H25.2148V19.66H26.9148V18.86C26.9148 17.94 27.2015 17.1867 27.7748 16.6C28.3482 16.0133 29.2148 15.72 30.3748 15.72C30.6282 15.72 30.8815 15.7333 31.1348 15.76C31.3882 15.7733 31.6348 15.7867 31.8748 15.8V17.92C31.5415 17.88 31.1948 17.86 30.8348 17.86C30.4482 17.86 30.1682 17.9533 29.9948 18.14C29.8348 18.3133 29.7548 18.6133 29.7548 19.04V19.66H31.7148V21.56H29.7548V30H26.9148V21.56ZM36.555 19.66H38.635V21.56H36.555V26.68C36.555 27.16 36.635 27.48 36.795 27.64C36.955 27.8 37.275 27.88 37.755 27.88C37.915 27.88 38.0683 27.8733 38.215 27.86C38.3617 27.8467 38.5017 27.8267 38.635 27.8V30C38.395 30.04 38.1283 30.0667 37.835 30.08C37.5417 30.0933 37.255 30.1 36.975 30.1C36.535 30.1 36.115 30.0667 35.715 30C35.3283 29.9467 34.9817 29.8333 34.675 29.66C34.3817 29.4867 34.1483 29.24 33.975 28.92C33.8017 28.6 33.715 28.18 33.715 27.66V21.56H31.995V19.66H33.715V16.56H36.555V19.66ZM51.8063 30H48.8863L47.0463 23.06H47.0063L45.2463 30H42.3063L39.0263 19.66H42.0263L43.9263 26.68H43.9663L45.6863 19.66H48.4463L50.2062 26.66H50.2463L52.1463 19.66H55.0663L51.8063 30ZM56.1553 22.84C56.1953 22.1733 56.362 21.62 56.6553 21.18C56.9486 20.74 57.322 20.3867 57.7753 20.12C58.2286 19.8533 58.7353 19.6667 59.2953 19.56C59.8686 19.44 60.442 19.38 61.0153 19.38C61.5353 19.38 62.062 19.42 62.5953 19.5C63.1286 19.5667 63.6153 19.7067 64.0553 19.92C64.4953 20.1333 64.8553 20.4333 65.1353 20.82C65.4153 21.1933 65.5553 21.6933 65.5553 22.32V27.7C65.5553 28.1667 65.582 28.6133 65.6353 29.04C65.6886 29.4667 65.782 29.7867 65.9153 30H63.0353C62.982 29.84 62.9353 29.68 62.8953 29.52C62.8686 29.3467 62.8486 29.1733 62.8353 29C62.382 29.4667 61.8486 29.7933 61.2353 29.98C60.622 30.1667 59.9953 30.26 59.3553 30.26C58.862 30.26 58.402 30.2 57.9753 30.08C57.5486 29.96 57.1753 29.7733 56.8553 29.52C56.5353 29.2667 56.282 28.9467 56.0953 28.56C55.922 28.1733 55.8353 27.7133 55.8353 27.18C55.8353 26.5933 55.9353 26.1133 56.1353 25.74C56.3486 25.3533 56.6153 25.0467 56.9353 24.82C57.2686 24.5933 57.642 24.4267 58.0553 24.32C58.482 24.2 58.9086 24.1067 59.3353 24.04C59.762 23.9733 60.182 23.92 60.5953 23.88C61.0086 23.84 61.3753 23.78 61.6953 23.7C62.0153 23.62 62.2686 23.5067 62.4553 23.36C62.642 23.2 62.7286 22.9733 62.7153 22.68C62.7153 22.3733 62.662 22.1333 62.5553 21.96C62.462 21.7733 62.3286 21.6333 62.1553 21.54C61.9953 21.4333 61.802 21.3667 61.5753 21.34C61.362 21.3 61.1286 21.28 60.8753 21.28C60.3153 21.28 59.8753 21.4 59.5553 21.64C59.2353 21.88 59.0486 22.28 58.9953 22.84H56.1553ZM62.7153 24.94C62.5953 25.0467 62.442 25.1333 62.2553 25.2C62.082 25.2533 61.8886 25.3 61.6753 25.34C61.4753 25.38 61.262 25.4133 61.0353 25.44C60.8086 25.4667 60.582 25.5 60.3553 25.54C60.142 25.58 59.9286 25.6333 59.7153 25.7C59.5153 25.7667 59.3353 25.86 59.1753 25.98C59.0286 26.0867 58.9086 26.2267 58.8153 26.4C58.722 26.5733 58.6753 26.7933 58.6753 27.06C58.6753 27.3133 58.722 27.5267 58.8153 27.7C58.9086 27.8733 59.0353 28.0133 59.1953 28.12C59.3553 28.2133 59.542 28.28 59.7553 28.32C59.9686 28.36 60.1886 28.38 60.4153 28.38C60.9753 28.38 61.4086 28.2867 61.7153 28.1C62.022 27.9133 62.2486 27.6933 62.3953 27.44C62.542 27.1733 62.6286 26.9067 62.6553 26.64C62.6953 26.3733 62.7153 26.16 62.7153 26V24.94ZM67.7597 19.66H70.4597V21.58H70.4997C70.633 21.26 70.813 20.9667 71.0397 20.7C71.2664 20.42 71.5264 20.1867 71.8197 20C72.113 19.8 72.4264 19.6467 72.7597 19.54C73.093 19.4333 73.4397 19.38 73.7997 19.38C73.9864 19.38 74.193 19.4133 74.4197 19.48V22.12C74.2864 22.0933 74.1264 22.0733 73.9397 22.06C73.753 22.0333 73.573 22.02 73.3997 22.02C72.8797 22.02 72.4397 22.1067 72.0797 22.28C71.7197 22.4533 71.4264 22.6933 71.1997 23C70.9864 23.2933 70.833 23.64 70.7397 24.04C70.6464 24.44 70.5997 24.8733 70.5997 25.34V30H67.7597V19.66ZM82.1416 23.72C82.0082 23 81.7682 22.4533 81.4216 22.08C81.0882 21.7067 80.5749 21.52 79.8816 21.52C79.4282 21.52 79.0482 21.6 78.7416 21.76C78.4482 21.9067 78.2082 22.0933 78.0216 22.32C77.8482 22.5467 77.7216 22.7867 77.6416 23.04C77.5749 23.2933 77.5349 23.52 77.5216 23.72H82.1416ZM77.5216 25.52C77.5616 26.44 77.7949 27.1067 78.2216 27.52C78.6482 27.9333 79.2616 28.14 80.0616 28.14C80.6349 28.14 81.1282 28 81.5416 27.72C81.9549 27.4267 82.2082 27.12 82.3016 26.8H84.8016C84.4016 28.04 83.7882 28.9267 82.9616 29.46C82.1349 29.9933 81.1349 30.26 79.9616 30.26C79.1482 30.26 78.4149 30.1333 77.7616 29.88C77.1082 29.6133 76.5549 29.24 76.1016 28.76C75.6482 28.28 75.2949 27.7067 75.0416 27.04C74.8016 26.3733 74.6816 25.64 74.6816 24.84C74.6816 24.0667 74.8082 23.3467 75.0616 22.68C75.3149 22.0133 75.6749 21.44 76.1416 20.96C76.6082 20.4667 77.1616 20.08 77.8016 19.8C78.4549 19.52 79.1749 19.38 79.9616 19.38C80.8416 19.38 81.6082 19.5533 82.2616 19.9C82.9149 20.2333 83.4482 20.6867 83.8616 21.26C84.2882 21.8333 84.5949 22.4867 84.7816 23.22C84.9682 23.9533 85.0349 24.72 84.9816 25.52H77.5216ZM95.6723 22.18H99.1123C99.8323 22.18 100.372 22.02 100.732 21.7C101.092 21.38 101.272 20.86 101.272 20.14C101.272 19.4467 101.092 18.9467 100.732 18.64C100.372 18.32 99.8323 18.16 99.1123 18.16H95.6723V22.18ZM92.5323 15.72H100.232C100.872 15.72 101.446 15.8267 101.952 16.04C102.472 16.24 102.912 16.52 103.272 16.88C103.646 17.24 103.926 17.66 104.112 18.14C104.312 18.6067 104.412 19.1133 104.412 19.66C104.412 20.5 104.232 21.2267 103.872 21.84C103.526 22.4533 102.952 22.92 102.152 23.24V23.28C102.539 23.3867 102.859 23.5533 103.112 23.78C103.366 23.9933 103.572 24.2533 103.732 24.56C103.892 24.8533 104.006 25.18 104.072 25.54C104.152 25.9 104.206 26.26 104.232 26.62C104.246 26.8467 104.259 27.1133 104.272 27.42C104.286 27.7267 104.306 28.04 104.332 28.36C104.372 28.68 104.426 28.9867 104.492 29.28C104.572 29.56 104.686 29.8 104.832 30H101.692C101.519 29.5467 101.412 29.0067 101.372 28.38C101.332 27.7533 101.272 27.1533 101.192 26.58C101.086 25.8333 100.859 25.2867 100.512 24.94C100.166 24.5933 99.599 24.42 98.8123 24.42H95.6723V30H92.5323V15.72ZM113.626 23.72C113.493 23 113.253 22.4533 112.906 22.08C112.573 21.7067 112.059 21.52 111.366 21.52C110.913 21.52 110.533 21.6 110.226 21.76C109.933 21.9067 109.693 22.0933 109.506 22.32C109.333 22.5467 109.206 22.7867 109.126 23.04C109.059 23.2933 109.019 23.52 109.006 23.72H113.626ZM109.006 25.52C109.046 26.44 109.279 27.1067 109.706 27.52C110.133 27.9333 110.746 28.14 111.546 28.14C112.119 28.14 112.613 28 113.026 27.72C113.439 27.4267 113.693 27.12 113.786 26.8H116.286C115.886 28.04 115.273 28.9267 114.446 29.46C113.619 29.9933 112.619 30.26 111.446 30.26C110.633 30.26 109.899 30.1333 109.246 29.88C108.593 29.6133 108.039 29.24 107.586 28.76C107.133 28.28 106.779 27.7067 106.526 27.04C106.286 26.3733 106.166 25.64 106.166 24.84C106.166 24.0667 106.293 23.3467 106.546 22.68C106.799 22.0133 107.159 21.44 107.626 20.96C108.093 20.4667 108.646 20.08 109.286 19.8C109.939 19.52 110.659 19.38 111.446 19.38C112.326 19.38 113.093 19.5533 113.746 19.9C114.399 20.2333 114.933 20.6867 115.346 21.26C115.773 21.8333 116.079 22.4867 116.266 23.22C116.453 23.9533 116.519 24.72 116.466 25.52H109.006ZM125.19 23.3C125.004 22.1133 124.304 21.52 123.09 21.52C122.637 21.52 122.257 21.6267 121.95 21.84C121.644 22.04 121.39 22.3067 121.19 22.64C121.004 22.96 120.87 23.32 120.79 23.72C120.71 24.1067 120.67 24.4933 120.67 24.88C120.67 25.2533 120.71 25.6333 120.79 26.02C120.87 26.4067 120.997 26.76 121.17 27.08C121.357 27.3867 121.604 27.64 121.91 27.84C122.217 28.04 122.59 28.14 123.03 28.14C123.71 28.14 124.23 27.9533 124.59 27.58C124.964 27.1933 125.197 26.68 125.29 26.04H128.03C127.844 27.4133 127.31 28.46 126.43 29.18C125.55 29.9 124.424 30.26 123.05 30.26C122.277 30.26 121.564 30.1333 120.91 29.88C120.27 29.6133 119.724 29.2467 119.27 28.78C118.817 28.3133 118.464 27.76 118.21 27.12C117.957 26.4667 117.83 25.7533 117.83 24.98C117.83 24.18 117.944 23.44 118.17 22.76C118.41 22.0667 118.757 21.4733 119.21 20.98C119.664 20.4733 120.217 20.08 120.87 19.8C121.524 19.52 122.27 19.38 123.11 19.38C123.724 19.38 124.31 19.46 124.87 19.62C125.444 19.78 125.95 20.0267 126.39 20.36C126.844 20.68 127.21 21.0867 127.49 21.58C127.77 22.06 127.93 22.6333 127.97 23.3H125.19ZM129.635 19.66H132.335V21.58H132.375C132.508 21.26 132.688 20.9667 132.915 20.7C133.141 20.42 133.401 20.1867 133.695 20C133.988 19.8 134.301 19.6467 134.635 19.54C134.968 19.4333 135.315 19.38 135.675 19.38C135.861 19.38 136.068 19.4133 136.295 19.48V22.12C136.161 22.0933 136.001 22.0733 135.815 22.06C135.628 22.0333 135.448 22.02 135.275 22.02C134.755 22.02 134.315 22.1067 133.955 22.28C133.595 22.4533 133.301 22.6933 133.075 23C132.861 23.2933 132.708 23.64 132.615 24.04C132.521 24.44 132.475 24.8733 132.475 25.34V30H129.635V19.66ZM147.108 30H144.408V28.56H144.348C143.988 29.16 143.521 29.5933 142.948 29.86C142.375 30.1267 141.788 30.26 141.188 30.26C140.428 30.26 139.801 30.16 139.308 29.96C138.828 29.76 138.448 29.48 138.168 29.12C137.888 28.7467 137.688 28.3 137.568 27.78C137.461 27.2467 137.408 26.66 137.408 26.02V19.66H140.248V25.5C140.248 26.3533 140.381 26.9933 140.648 27.42C140.915 27.8333 141.388 28.04 142.068 28.04C142.841 28.04 143.401 27.8133 143.748 27.36C144.095 26.8933 144.268 26.1333 144.268 25.08V19.66H147.108V30ZM152.184 18.06H149.344V15.72H152.184V18.06ZM149.344 19.66H152.184V30H149.344V19.66ZM158.02 19.66H160.1V21.56H158.02V26.68C158.02 27.16 158.1 27.48 158.26 27.64C158.42 27.8 158.74 27.88 159.22 27.88C159.38 27.88 159.533 27.8733 159.68 27.86C159.827 27.8467 159.967 27.8267 160.1 27.8V30C159.86 30.04 159.593 30.0667 159.3 30.08C159.007 30.0933 158.72 30.1 158.44 30.1C158 30.1 157.58 30.0667 157.18 30C156.793 29.9467 156.447 29.8333 156.14 29.66C155.847 29.4867 155.613 29.24 155.44 28.92C155.267 28.6 155.18 28.18 155.18 27.66V21.56H153.46V19.66H155.18V16.56H158.02V19.66ZM161.531 19.66H164.211V21.06H164.251C164.624 20.5267 165.071 20.1133 165.591 19.82C166.124 19.5267 166.731 19.38 167.411 19.38C168.064 19.38 168.658 19.5067 169.191 19.76C169.738 20.0133 170.151 20.46 170.431 21.1C170.738 20.6467 171.151 20.2467 171.671 19.9C172.204 19.5533 172.831 19.38 173.551 19.38C174.098 19.38 174.604 19.4467 175.071 19.58C175.538 19.7133 175.938 19.9267 176.271 20.22C176.604 20.5133 176.864 20.9 177.051 21.38C177.238 21.8467 177.331 22.4133 177.331 23.08V30H174.491V24.14C174.491 23.7933 174.478 23.4667 174.451 23.16C174.424 22.8533 174.351 22.5867 174.231 22.36C174.111 22.1333 173.931 21.9533 173.691 21.82C173.464 21.6867 173.151 21.62 172.751 21.62C172.351 21.62 172.024 21.7 171.771 21.86C171.531 22.0067 171.338 22.2067 171.191 22.46C171.058 22.7 170.964 22.98 170.911 23.3C170.871 23.6067 170.851 23.92 170.851 24.24V30H168.011V24.2C168.011 23.8933 168.004 23.5933 167.991 23.3C167.978 22.9933 167.918 22.7133 167.811 22.46C167.718 22.2067 167.551 22.0067 167.311 21.86C167.084 21.7 166.744 21.62 166.291 21.62C166.158 21.62 165.978 21.6533 165.751 21.72C165.538 21.7733 165.324 21.8867 165.111 22.06C164.911 22.22 164.738 22.46 164.591 22.78C164.444 23.0867 164.371 23.4933 164.371 24V30H161.531V19.66ZM186.536 23.72C186.403 23 186.163 22.4533 185.816 22.08C185.483 21.7067 184.969 21.52 184.276 21.52C183.823 21.52 183.443 21.6 183.136 21.76C182.843 21.9067 182.603 22.0933 182.416 22.32C182.243 22.5467 182.116 22.7867 182.036 23.04C181.969 23.2933 181.929 23.52 181.916 23.72H186.536ZM181.916 25.52C181.956 26.44 182.189 27.1067 182.616 27.52C183.043 27.9333 183.656 28.14 184.456 28.14C185.029 28.14 185.523 28 185.936 27.72C186.349 27.4267 186.603 27.12 186.696 26.8H189.196C188.796 28.04 188.183 28.9267 187.356 29.46C186.529 29.9933 185.529 30.26 184.356 30.26C183.543 30.26 182.809 30.1333 182.156 29.88C181.503 29.6133 180.949 29.24 180.496 28.76C180.043 28.28 179.689 27.7067 179.436 27.04C179.196 26.3733 179.076 25.64 179.076 24.84C179.076 24.0667 179.203 23.3467 179.456 22.68C179.709 22.0133 180.069 21.44 180.536 20.96C181.003 20.4667 181.556 20.08 182.196 19.8C182.849 19.52 183.569 19.38 184.356 19.38C185.236 19.38 186.003 19.5533 186.656 19.9C187.309 20.2333 187.843 20.6867 188.256 21.26C188.683 21.8333 188.989 22.4867 189.176 23.22C189.363 23.9533 189.429 24.72 189.376 25.52H181.916ZM191.06 19.66H193.76V21.1H193.82C194.18 20.5 194.647 20.0667 195.22 19.8C195.794 19.52 196.38 19.38 196.98 19.38C197.74 19.38 198.36 19.4867 198.84 19.7C199.334 19.9 199.72 20.1867 200 20.56C200.28 20.92 200.474 21.3667 200.58 21.9C200.7 22.42 200.76 23 200.76 23.64V30H197.92V24.16C197.92 23.3067 197.787 22.6733 197.52 22.26C197.254 21.8333 196.78 21.62 196.1 21.62C195.327 21.62 194.767 21.8533 194.42 22.32C194.074 22.7733 193.9 23.5267 193.9 24.58V30H191.06V19.66ZM206.516 19.66H208.596V21.56H206.516V26.68C206.516 27.16 206.596 27.48 206.756 27.64C206.916 27.8 207.236 27.88 207.716 27.88C207.876 27.88 208.029 27.8733 208.176 27.86C208.323 27.8467 208.463 27.8267 208.596 27.8V30C208.356 30.04 208.089 30.0667 207.796 30.08C207.503 30.0933 207.216 30.1 206.936 30.1C206.496 30.1 206.076 30.0667 205.676 30C205.289 29.9467 204.943 29.8333 204.636 29.66C204.343 29.4867 204.109 29.24 203.936 28.92C203.763 28.6 203.676 28.18 203.676 27.66V21.56H201.956V19.66H203.676V16.56H206.516V19.66ZM222.554 23.3C222.367 22.1133 221.667 21.52 220.454 21.52C220 21.52 219.62 21.6267 219.314 21.84C219.007 22.04 218.754 22.3067 218.554 22.64C218.367 22.96 218.234 23.32 218.154 23.72C218.074 24.1067 218.034 24.4933 218.034 24.88C218.034 25.2533 218.074 25.6333 218.154 26.02C218.234 26.4067 218.36 26.76 218.534 27.08C218.72 27.3867 218.967 27.64 219.274 27.84C219.58 28.04 219.954 28.14 220.394 28.14C221.074 28.14 221.594 27.9533 221.954 27.58C222.327 27.1933 222.56 26.68 222.654 26.04H225.394C225.207 27.4133 224.674 28.46 223.794 29.18C222.914 29.9 221.787 30.26 220.414 30.26C219.64 30.26 218.927 30.1333 218.274 29.88C217.634 29.6133 217.087 29.2467 216.634 28.78C216.18 28.3133 215.827 27.76 215.574 27.12C215.32 26.4667 215.194 25.7533 215.194 24.98C215.194 24.18 215.307 23.44 215.534 22.76C215.774 22.0667 216.12 21.4733 216.574 20.98C217.027 20.4733 217.58 20.08 218.234 19.8C218.887 19.52 219.634 19.38 220.474 19.38C221.087 19.38 221.674 19.46 222.234 19.62C222.807 19.78 223.314 20.0267 223.754 20.36C224.207 20.68 224.574 21.0867 224.854 21.58C225.134 22.06 225.294 22.6333 225.334 23.3H222.554ZM229.518 24.84C229.518 25.2533 229.558 25.66 229.638 26.06C229.718 26.4467 229.851 26.8 230.038 27.12C230.238 27.4267 230.498 27.6733 230.818 27.86C231.138 28.0467 231.538 28.14 232.018 28.14C232.498 28.14 232.898 28.0467 233.218 27.86C233.551 27.6733 233.811 27.4267 233.998 27.12C234.198 26.8 234.338 26.4467 234.418 26.06C234.498 25.66 234.538 25.2533 234.538 24.84C234.538 24.4267 234.498 24.02 234.418 23.62C234.338 23.22 234.198 22.8667 233.998 22.56C233.811 22.2533 233.551 22.0067 233.218 21.82C232.898 21.62 232.498 21.52 232.018 21.52C231.538 21.52 231.138 21.62 230.818 21.82C230.498 22.0067 230.238 22.2533 230.038 22.56C229.851 22.8667 229.718 23.22 229.638 23.62C229.558 24.02 229.518 24.4267 229.518 24.84ZM226.678 24.84C226.678 24.0133 226.805 23.2667 227.058 22.6C227.311 21.92 227.671 21.3467 228.138 20.88C228.605 20.4 229.165 20.0333 229.818 19.78C230.471 19.5133 231.205 19.38 232.018 19.38C232.831 19.38 233.565 19.5133 234.218 19.78C234.885 20.0333 235.451 20.4 235.918 20.88C236.385 21.3467 236.745 21.92 236.998 22.6C237.251 23.2667 237.378 24.0133 237.378 24.84C237.378 25.6667 237.251 26.4133 236.998 27.08C236.745 27.7467 236.385 28.32 235.918 28.8C235.451 29.2667 234.885 29.6267 234.218 29.88C233.565 30.1333 232.831 30.26 232.018 30.26C231.205 30.26 230.471 30.1333 229.818 29.88C229.165 29.6267 228.605 29.2667 228.138 28.8C227.671 28.32 227.311 27.7467 227.058 27.08C226.805 26.4133 226.678 25.6667 226.678 24.84ZM239.345 26.92H242.485V30H239.345V26.92Z" fill="#064EA4"/>
</svg>
