<svg width="25" height="25" viewBox="0 0 25 25" fill="none" xmlns="http://www.w3.org/2000/svg">
<path d="M3.5 6.46667H21.5V18.4667H3.5V6.46667ZM12.5 9.46667C13.2956 9.46667 14.0587 9.78274 14.6213 10.3454C15.1839 10.908 15.5 11.671 15.5 12.4667C15.5 13.2623 15.1839 14.0254 14.6213 14.588C14.0587 15.1506 13.2956 15.4667 12.5 15.4667C11.7044 15.4667 10.9413 15.1506 10.3787 14.588C9.81607 14.0254 9.5 13.2623 9.5 12.4667C9.5 11.671 9.81607 10.908 10.3787 10.3454C10.9413 9.78274 11.7044 9.46667 12.5 9.46667ZM7.5 8.46667C7.5 8.99711 7.28929 9.50582 6.91421 9.88089C6.53914 10.256 6.03043 10.4667 5.5 10.4667V14.4667C6.03043 14.4667 6.53914 14.6774 6.91421 15.0525C7.28929 15.4275 7.5 15.9362 7.5 16.4667H17.5C17.5 15.9362 17.7107 15.4275 18.0858 15.0525C18.4609 14.6774 18.9696 14.4667 19.5 14.4667V10.4667C18.9696 10.4667 18.4609 10.256 18.0858 9.88089C17.7107 9.50582 17.5 8.99711 17.5 8.46667H7.5Z" fill="#064EA4"/>
</svg>
